PathFileType	4	(X/Y/Z)	C:/Users/beibeiliu/ov580/test_trc\sequence.12_training_dense_left.trc
DataRate	CameraRate	NumFrames	NumMarkers	Units	OrigDataRate	OrigDataStartFrame	OrigNumFrames
120	120	16	19	mm	120	26	76
Frame#	Time	ThumbCMC			ThumbMCP			ThumbIP			ThumbTip			IndexMCP			IndexPIP			IndexTip			MiddleMCP			MiddlePIP			MiddleTip			RingMCP			RingPIP			RingTip			PinkyMCP			PinkyPIP			PinkyTip			BackHand1			BackHand2			BackHand3	
		X0	Y0	Z0	X1	Y1	Z1	X2	Y2	Z2	X3	Y3	Z3	X4	Y4	Z4	X5	Y5	Z5	X6	Y6	Z6	X7	Y7	Z7	X8	Y8	Z8	X9	Y9	Z9	X10	Y10	Z10	X11	Y11	Z11	X12	Y12	Z12	X13	Y13	Z13	X14	Y14	Z14	X15	Y15	Z15	X16	Y16	Z16	X17	Y17	Z17	X18	Y18	Z18	
25	0.208333	-230.134	20.9613	130.848	-208.472	33.092	103.283	-201.025	34.7388	73.9801	-196.14	29.7937	52.0735	-256.072	10.2259	60.0018	-238.848	18.9844	37.1873	-212.63	25.2305	27.5899	-248.97	-7.50208	54.6265	-227.133	3.02722	33.6621	-193.966	12.7143	34.7068	-242.272	-30.7125	57.5587	-225.572	-23.3929	31.9556	-200.866	-10.5659	19.4685	-234.828	-46.3951	69.7825	-228.814	-50.354	46.5422	-221.609	-49.6367	22.5601	-249.279	-37.7283	116.809	-247.648	-34.2809	142.291	-258.411	-7.94277	130.414	
26	0.216667	-227.938	27.682	128.935	-205.603	35.5399	102.504	-198.566	35.1046	76.7673	-193.008	28.7271	54.9388	-253.098	18.5186	63.9357	-235.54	19.9454	38.9164	-209.796	25.5386	29.7402	-245.343	-6.60143	54.4818	-226.907	5.06605	34.6732	-195.591	14.7444	31.1373	-241.469	-23.0314	57.0957	-223.933	-17.2587	32.9407	-198.72	-3.18641	21.4604	-231.45	-45.6109	72.1854	-226.318	-44.1365	45.5535	-218.208	-45.918	22.5234	-247.576	-34.219	111.611	-244.877	-35.2354	145.282	-256.857	-2.52849	128.798	
27	0.225	-227.023	24.1574	131.138	-203.042	36.644	107.706	-195.257	39.7596	76.894	-188.483	34.7537	54.4089	-250.197	14.39	65.5222	-232.774	24.321	38.7305	-205.267	24.0916	31.4911	-246.206	-2.3837	54.831	-225.374	1.62516	32.4043	-192.841	17.2754	28.9866	-238.997	-25.5869	59.5053	-220.57	-17.1432	33.3392	-198.305	-6.24676	23.4719	-229.844	-46.1744	72.6842	-225.078	-43.5783	50.258	-213.898	-41.4627	23.7672	-246.794	-29.3808	114.644	-242.376	-34.1963	144.867	-255.765	-3.79884	127.092	
28	0.233333	-225.047	29.6379	130.401	-201.212	33.625	109.788	-191.083	37.9034	82.1931	-184.858	32.4384	60.1235	-249.225	17.1557	64.0149	-232.925	21.6034	41.005	-200.678	26.5034	30.9151	-248.189	-1.47017	60.2811	-229.504	3.9603	31.037	-201.336	10.6006	24.0268	-238.458	-21.1516	58.6973	-223.308	-13.5387	33.8278	-200.208	-2.56072	23.7476	-230.269	-39.8027	73.5285	-222.157	-41.9191	47.0139	-212.443	-38.7241	22.5581	-246.754	-31.3148	112.245	-243.322	-30.3865	147.146	-255.862	-1.62919	131.213	
29	0.241667	-221.351	31.3237	133.258	-198.305	34.3712	106.543	-185.538	42.0203	81.7625	-179.055	32.1215	57.9886	-248.893	17.9598	66.4536	-234.787	25.0492	39.7017	-206.166	31.7372	27.0265	-249.854	-5.10615	58.7962	-236.622	0.203738	30.5878	-207.498	11.1148	14.0763	-238.63	-19.5077	60.8773	-223.678	-15.0266	35.2575	-198.245	-5.48333	23.5514	-228.589	-35.1625	73.594	-221.661	-38.2063	46.3806	-210.612	-32.9287	23.1113	-245.183	-23.2821	117.509	-240.899	-25.0377	144.752	-254.044	3.69717	132.033	
30	0.25	-218.143	29.0986	128.988	-191.949	35.5987	103.354	-181.5	31.4121	81.7695	-176.749	19.4245	57.0147	-247.164	22.521	62.4759	-233.92	21.2461	40.3228	-204.355	24.8416	23.1975	-248.134	-5.30263	63.1333	-238.484	-4.52426	30.7388	-213.786	1.48186	12.4474	-237.502	-20.4791	60.4686	-218.423	-17.7654	35.2877	-194.076	-0.751672	28.5082	-225.447	-36.2903	72.3991	-217.252	-37.8421	50.0303	-203.93	-31.557	22.2091	-243.934	-26.8476	114.969	-238.702	-25.343	146.547	-250.968	3.98041	130.794	
31	0.258333	-210.813	33.9011	131.472	-182.917	36.7746	104.125	-175.726	29.7393	81.2188	-170.912	17.3216	56.6662	-240.319	23.9344	62.7806	-228.728	27.5781	38.8756	-202.357	27.5946	22.226	-245.589	1.29755	59.3451	-234.604	0.649787	30.6978	-209.203	5.49112	10.1651	-231.834	-18.3657	63.7341	-216.454	-14.6165	39.3386	-185.631	-1.24028	34.6375	-221.891	-34.8773	76.3813	-212.242	-36.6113	48.9012	-199.869	-31.8382	28.8796	-241.58	-19.5524	116.777	-236.379	-17.0423	147.947	-245.197	15.18	129.659	
32	0.266667	-204.79	37.9631	130.069	-178.848	37.9998	105.749	-168.029	32.8131	79.409	-169.819	14.7208	59.1984	-234.823	33.1454	66.7007	-221.329	30.8269	37.6072	-195.632	27.4	22.4372	-239.998	6.37095	61.9912	-231.475	4.66419	30.8311	-202.471	8.98594	13.3983	-230.113	-9.77174	62.6541	-211.817	-11.5205	38.5471	-180.742	-0.83811	38.1901	-219.964	-31.3769	73.9349	-210.673	-29.161	49.0637	-191.889	-26.0139	27.3297	-239.692	-13.8467	114.571	-235.031	-10.9642	146.731	-239.276	15.7464	129.641	
33	0.275	-200.153	42.1518	131.885	-173.545	38.8592	105.224	-163.857	30.6715	76.8567	-165.187	14.8282	61.2681	-227.814	31.9591	65.2603	-214.669	30.8853	37.6986	-187.678	28.6264	24.1033	-235.655	12.1117	58.3041	-224.881	8.79882	30.6785	-195.995	10.6855	15.9971	-225.752	-5.68103	59.7555	-206.702	-7.53016	38.8748	-173.402	1.1259	41.3171	-218.599	-28.4682	69.6452	-206.232	-26.052	48.4089	-187.775	-26.7306	28.5928	-237.947	-6.93434	113.465	-235.921	-8.26325	141.623	-238.789	20.1552	127.571	
34	0.283333	-197.65	41.0094	133.058	-168.97	39.6456	108.183	-161.334	32.1655	82.5343	-164.45	14.0286	62.0438	-223.971	37.5622	66.4816	-206.861	34.6389	36.7394	-185.25	29.9909	25.6935	-232.753	16.1292	57.1685	-217.676	12.2233	29.2413	-184.692	14.1114	18.3213	-224.466	-5.3932	61.1987	-203.027	-1.68029	37.0619	-170.122	3.00178	42.0849	-216.994	-25.4751	75.0414	-204.598	-24.3434	46.7569	-184.432	-19.4451	28.9862	-235.791	-4.45427	113.58	-233.924	-7.35331	145.471	-235.558	21.4455	127.642	
35	0.291667	-192.087	43.3346	136.706	-167.791	40.1328	107.175	-160.648	32.9026	84.2177	-163.459	14.176	64.6951	-220.244	42.9033	66.3819	-202.638	43.2604	37.6665	-180.713	35.3245	27.358	-228.881	16.792	57.8518	-212.91	18.6093	30.8374	-180.952	18.6765	20.7248	-222.19	-2.39323	61.6474	-199.879	-0.183431	37.4096	-170.48	4.76413	42.3902	-217.721	-22.2254	70.2847	-203.348	-22.0706	46.3006	-181.976	-20.6881	32.4221	-234.727	-3.62159	112.225	-233.599	-6.00637	144.048	-230.183	24.9185	130.671	
36	0.3	-186.17	43.6192	139.319	-163.127	39.0527	110.986	-155.317	32.9997	87.3794	-157.726	15.6424	63.3538	-213.096	42.0284	68.8336	-201.099	42.068	43.273	-174.919	33.7564	29.7542	-223.079	22.798	62.8598	-209.788	23.5707	34.6511	-176.722	15.599	24.8949	-218.783	1.57445	65.7514	-200.521	1.57917	41.2197	-164.093	6.37136	47.0348	-214.593	-17.0073	71.901	-202.103	-17.9057	49.3436	-176.344	-18.0533	33.5746	-229.68	-3.24102	117.042	-230.44	-2.86499	144.561	-224.893	27.0073	132.379	
37	0.308333	-179.809	44.1286	140.002	-156.004	41.3175	113.066	-147.494	34.9788	91.1523	-151.46	17.6979	67.616	-204.191	46.9399	67.4424	-189.894	46.8983	43.1867	-164.019	40.1488	31.7257	-215.25	25.6155	66.2601	-201.672	25.0064	36.3099	-169.793	17.1363	27.7796	-213.504	4.46412	67.0724	-191.104	6.72019	41.7334	-157.126	3.08679	50.3074	-211.426	-16.0984	79.0266	-198.911	-19.411	52.0205	-177.608	-14.8827	35.751	-223.367	5.97813	120.774	-226.169	-1.64622	147.121	-218.097	35.3937	132.918	
38	0.316667	-178.863	44.6231	141.099	-150.112	44.5261	116.628	-142.212	38.3126	90.0035	-148.263	19.4103	72.9989	-201.389	50.9241	72.8788	-185.461	53.7158	44.4431	-161.479	41.065	31.6836	-211.835	33.2093	66.4229	-198.609	28.2403	35.9007	-164.864	20.1583	25.0384	-209.088	10.9003	65.3555	-188.434	7.82894	42.3043	-156.209	6.73	49.2382	-207.695	-11.9831	75.7764	-196.984	-18.5375	51.8523	-170.899	-16.6186	32.4632	-220.434	4.53776	119.429	-222.322	5.46834	146.849	-216.615	37.7667	134.36	
39	0.325	-179.505	44.6177	140.02	-153.735	41.9809	118.016	-142.62	37.6149	87.668	-148.455	18.5084	65.7459	-200.533	52.3381	67.0607	-188.339	54.2982	45.3163	-160.719	45.7279	29.4206	-213.063	29.3816	61.3499	-198.195	28.4021	33.4423	-172.299	21.9361	20.1077	-206.949	12.2894	64.5633	-183.796	8.03053	42.4032	-150.451	6.45236	50.4971	-207.506	-12.0143	72.3274	-196.36	-15.8709	49.2494	-174.409	-15.0591	29.8108	-222.156	8.68924	117.789	-222.064	2.67801	145.28	-215.793	38.0924	135.446	
40	0.333333	-174.907	48.8309	138.057	-151.682	41.3289	113.238	-141.067	37.2809	86.6346	-143.273	21.935	63.5546	-201.226	52.2561	66.1311	-186.216	54.8454	43.862	-165.685	45.1674	27.1333	-211.999	30.7424	61.3592	-201.02	29.7487	34.0524	-175.102	28.6702	13.9483	-204.94	10.0173	62.6754	-181.644	9.19255	42.1418	-147.332	10.7721	50.6959	-207.669	-8.42092	74.5847	-198.945	-15.3286	50.1056	-186.686	-13.4276	25.8888	-222.451	5.67814	113.476	-221.966	4.19481	145.299	-217.452	36.2505	133.781	
